<?xml version="1.0" encoding="iso-8859-1"?>
<!-- Generator: Adobe Illustrator 18.0.0, SVG Export Plug-In . SVG Version: 6.00 Build 0)  -->
<!DOCTYPE svg PUBLIC "-//W3C//DTD SVG 1.1//EN" "http://www.w3.org/Graphics/SVG/1.1/DTD/svg11.dtd">
<svg version="1.1" id="Capa_1" xmlns="http://www.w3.org/2000/svg" xmlns:xlink="http://www.w3.org/1999/xlink" x="0px" y="0px"
	 viewBox="0 0 469.877 469.877" style="enable-background:new 0 0 469.877 469.877;" xml:space="preserve">
<g id="XMLID_119_">
	<path id="XMLID_120_" d="M256.523,379.218c25.143-9.975,54.685-5.665,75.892,13.14c19.376-17.173,45.656-22.077,69.226-15.252
		c4.737-10.272,7.558-21.604,7.558-33.653c0-44.564-36.124-80.694-80.689-80.694c-44.564,0-80.696,36.13-80.696,80.694
		C247.814,356.364,251.123,368.397,256.523,379.218z"/>
	<path id="XMLID_121_" d="M465.294,411.964c-6.116-6.102-15.998-6.102-22.085,0.014c-7.106,7.092-19.559,7.086-26.651-0.006
		c-19.522-19.523-51.275-19.516-70.797-0.008c-7.359,7.351-19.316,7.351-26.675,0c-19.538-19.508-51.307-19.515-70.829,0.008
		c-7.351,7.336-19.293,7.343-26.644-0.008c-19.545-19.515-51.315-19.515-70.829,0.014c-7.32,7.337-19.276,7.352-26.644,0
		c-19.522-19.521-51.299-19.528-70.836-0.006c-7.106,7.121-19.522,7.121-26.644,0c-6.101-6.102-15.984-6.102-22.084,0
		c-6.1,6.1-6.1,15.982,0,22.083c9.457,9.464,22.038,14.673,35.414,14.673c13.375,0,25.958-5.217,35.406-14.665
		c7.359-7.359,19.308-7.336,26.667,0.008c19.515,19.499,51.291,19.523,70.806-0.008c7.336-7.336,19.293-7.359,26.659-0.008
		c19.522,19.515,51.291,19.522,70.814,0.008c7.351-7.352,19.308-7.352,26.659,0c19.522,19.507,51.299,19.507,70.836,0
		c7.352-7.336,19.3-7.344,26.636-0.008c18.897,18.897,51.955,18.905,70.837-0.008C471.402,427.947,471.402,418.056,465.294,411.964z
		"/>
	<path id="XMLID_122_" d="M155.574,165.522c7.534,29.992,17.073,92.706-15.16,148.115c-0.771,1.318-0.428,3.005,0.786,3.919
		c1.22,0.923,2.935,0.785,3.995-0.313c28.476-29.68,74.176-92.417,57.682-177.437c0,0,38.266,47.654,22.207,111.17
		c-0.253,0.989,0.266,2.021,1.22,2.401c0.953,0.389,2.043,0.008,2.555-0.878c21.847-38.25,69.188-138.857-25.981-155.741
		c0,0,39.166-72.917-56.111-75.609c-1.029-0.03-1.921,0.71-2.082,1.724c-0.167,1.021,0.45,2.006,1.441,2.296
		c16.999,5.019,37.634,17.279,37.016,47.227c0,0-35.941-54.707-136.982-7.161c-0.931,0.434-1.395,1.487-1.09,2.471
		c0.313,0.977,1.296,1.579,2.302,1.41c27.88-4.751,85.295-8.875,102.879,32.952c0,0-64.505-33.92-111.122,54.669
		c-0.678,1.28-0.344,2.859,0.794,3.759c1.129,0.9,2.746,0.878,3.844-0.068c17.646-15.197,52.503-38.533,87.238-24.593
		C99.73,149.195,45.671,180.338,0.679,247.827v169.574C0.679,417.401,44.169,219.932,155.574,165.522z"/>
</g>
<g>
</g>
<g>
</g>
<g>
</g>
<g>
</g>
<g>
</g>
<g>
</g>
<g>
</g>
<g>
</g>
<g>
</g>
<g>
</g>
<g>
</g>
<g>
</g>
<g>
</g>
<g>
</g>
<g>
</g>
</svg>
